# Blender v3.0.0 OBJ File: ''
# www.blender.org
mtllib table.mtl
o Cube_Cube.001
v -1.542970 1.813475 1.542970
v -1.542970 1.813475 -1.542970
v 1.542970 1.813475 1.542970
v 1.542970 1.813475 -1.542970
v -1.528811 2.028027 1.528811
v -1.582915 1.977958 1.582915
v -1.528811 2.028027 -1.528811
v -1.582915 1.977958 -1.582915
v 1.528811 2.028027 1.528811
v 1.582915 1.977958 1.582915
v 1.528811 2.028027 -1.528811
v 1.582915 1.977958 -1.582915
v -1.506429 1.770117 -1.506429
v -1.506429 1.770117 1.506429
v 1.506429 1.770117 -1.506429
v 1.506429 1.770117 1.506429
vt 0.632174 0.507174
vt 0.867825 0.507174
vt 0.867826 0.742826
vt 0.632174 0.742825
vt 0.375000 0.500000
vt 0.617825 0.500000
vt 0.617825 0.750000
vt 0.375000 0.750000
vt 0.375000 0.000000
vt 0.617825 0.000000
vt 0.617825 0.250000
vt 0.375000 0.250000
vt 0.375000 0.750000
vt 0.375000 0.500000
vt 0.875000 0.500000
vt 0.875000 0.750000
vt 0.625000 0.500000
vt 0.625000 0.750000
vt 0.617825 1.000000
vt 0.375000 1.000000
vt 0.125000 0.500000
vt 0.125000 0.750000
vt 0.375000 0.250000
vt 0.375000 0.000000
vt 0.375000 1.000000
vn 0.0000 1.0000 0.0000
vn 0.9718 -0.2360 0.0000
vn -0.9718 -0.2360 0.0000
vn 0.7647 -0.6444 0.0000
vn 0.0000 -0.2360 -0.9718
vn -0.6792 0.7339 0.0000
vn 0.0000 0.7339 -0.6792
vn 0.6792 0.7339 0.0000
vn 0.0000 0.7339 0.6792
vn 0.0000 -0.2360 0.9718
vn 0.0000 -1.0000 0.0000
vn -0.7647 -0.6444 0.0000
vn 0.0000 -0.6444 0.7647
vn 0.0000 -0.6444 -0.7647
usemtl None
s off
f 11/1/1 7/2/1 5/3/1 9/4/1
f 4/5/2 12/6/2 10/7/2 3/8/2
f 1/9/3 6/10/3 8/11/3 2/12/3
f 4/5/4 3/8/4 16/13/4 15/14/4
f 2/12/5 8/11/5 12/6/5 4/5/5
f 5/3/6 7/2/6 8/15/6 6/16/6
f 7/2/7 11/1/7 12/17/7 8/15/7
f 11/1/8 9/4/8 10/7/8 12/6/8
f 9/4/9 5/3/9 6/16/9 10/18/9
f 3/8/10 10/7/10 6/19/10 1/20/10
f 13/21/11 15/14/11 16/13/11 14/22/11
f 1/9/12 2/12/12 13/23/12 14/24/12
f 3/8/13 1/20/13 14/25/13 16/13/13
f 2/12/14 4/5/14 15/14/14 13/23/14
o Cube.001_Cube.002
v -0.054311 -0.306689 0.121273
v -0.121273 -0.306689 0.054311
v -0.121273 1.809035 0.054311
v -0.054311 1.809035 0.121273
v -0.121273 -0.306689 -0.054311
v -0.054311 -0.306689 -0.121273
v -0.054311 1.809035 -0.121273
v -0.121273 1.809035 -0.054311
v 0.121273 -0.306689 0.054311
v 0.054311 -0.306689 0.121273
v 0.054311 1.809035 0.121273
v 0.121273 1.809035 0.054311
v 0.054311 -0.306689 -0.121273
v 0.121273 -0.306689 -0.054311
v 0.121273 1.809035 -0.054311
v 0.054311 1.809035 -0.121273
vt 0.375000 0.819020
vt 0.625000 0.819020
vt 0.625000 0.930980
vt 0.375000 0.930980
vt 0.375000 0.569020
vt 0.625000 0.569020
vt 0.625000 0.680980
vt 0.375000 0.680980
vt 0.694020 0.500000
vt 0.805980 0.500000
vt 0.875000 0.569020
vt 0.875000 0.680980
vt 0.805980 0.750000
vt 0.694020 0.750000
vt 0.375000 0.069020
vt 0.625000 0.069020
vt 0.625000 0.180980
vt 0.375000 0.180980
vt 0.375000 0.319020
vt 0.625000 0.319020
vt 0.625000 0.430980
vt 0.375000 0.430980
vt 0.375000 0.000000
vt 0.625000 0.000000
vt 0.125000 0.569020
vt 0.194020 0.500000
vt 0.305980 0.500000
vt 0.305980 0.750000
vt 0.194020 0.750000
vt 0.125000 0.680980
vn 0.3827 0.0000 0.9239
vn -0.3827 0.0000 0.9239
vn 0.9239 0.0000 -0.3827
vn 0.9239 0.0000 0.3827
vn 0.0000 1.0000 -0.0000
vn -0.9239 0.0000 0.3827
vn -0.9239 0.0000 -0.3827
vn -0.3827 0.0000 -0.9239
vn 0.3827 0.0000 -0.9239
vn 0.0000 -1.0000 0.0000
usemtl None
s 1
f 26/26/15 27/27/15 20/28/16 17/29/16
f 30/30/17 31/31/17 28/32/18 25/33/18
f 31/31/19 32/34/19 23/35/19 24/36/19 19/37/19 20/38/19 27/39/19 28/32/19
f 18/40/20 19/41/20 24/42/21 21/43/21
f 22/44/22 23/45/22 32/46/23 29/47/23
f 17/48/16 20/49/16 19/41/20 18/40/20
f 23/45/22 22/44/22 21/43/21 24/42/21
f 31/31/17 30/30/17 29/47/23 32/46/23
f 27/27/15 26/26/15 25/33/18 28/32/18
f 21/50/24 22/51/24 29/52/24 30/30/24 25/33/24 26/53/24 17/54/24 18/55/24
